<?xml version="1.0" encoding="utf-8"?>
<!-- Generator: Adobe Illustrator 16.0.0, SVG Export Plug-In . SVG Version: 6.00 Build 0)  -->
<svg version="1.1" xmlns="http://www.w3.org/2000/svg" xmlns:xlink="http://www.w3.org/1999/xlink" x="0px" y="0px" width="26px"
	 height="26px" viewBox="0 0 26 26" enable-background="new 0 0 26 26" xml:space="preserve">
<g id="petals">
	<path fill="#FFFFFF" stroke="#000000" stroke-miterlimit="10" d="M12.98,12.932c1.521-2.265,2.825-3.72,3.149-5.305
		c0.288-1.416-0.777-5.089-3.149-6.62c-2.372,1.531-3.419,5.201-3.148,6.62C10.199,9.546,11.233,10.151,12.98,12.932z"/>
	<path fill="#FFFFFF" stroke="#000000" stroke-miterlimit="10" d="M12.98,12.932c2.761,0.669,4.342,1.517,5.887,1.337
		c1.346-0.156,4.453-2.521,5.133-5.262c-2.218-1.748-6.082-1.572-7.289-0.776C15.127,9.277,14.856,10.592,12.98,12.932z"/>
	<path fill="#FFFFFF" stroke="#000000" stroke-miterlimit="10" d="M12.98,12.932c-2.76,0.669-4.341,1.517-5.887,1.337
		c-1.346-0.156-4.452-2.521-5.132-5.262C4.179,7.259,8.044,7.435,9.25,8.231C10.835,9.277,11.104,10.592,12.98,12.932z"/>
	<path fill="#FFFFFF" stroke="#000000" stroke-miterlimit="10" d="M12.98,12.932c0.145,3.271-0.283,4.132,0.604,5.872
		c0.657,1.288,3.666,3.479,6.93,3.178c0.776-2.731-0.902-6.545-2.142-7.289C16.935,13.831,14.174,13.342,12.98,12.932z"/>
	<path fill="#FFFFFF" stroke="#000000" stroke-miterlimit="10" d="M12.98,12.932c-0.144,3.271,0.283,4.132-0.604,5.872
		c-0.656,1.288-3.666,3.479-6.929,3.178c-0.777-2.731,0.902-6.545,2.142-7.289C9.027,13.831,11.788,13.342,12.98,12.932z"/>
</g>
<g id="stamina_rough">
	<line fill="none" stroke="#000000" stroke-miterlimit="10" x1="12.861" y1="12.746" x2="12.861" y2="6.5"/>
	<line fill="none" stroke="#000000" stroke-miterlimit="10" x1="12.86" y1="12.746" x2="18.76" y2="10.697"/>
	<line fill="none" stroke="#000000" stroke-miterlimit="10" x1="12.86" y1="12.746" x2="16.731" y2="17.646"/>
	<line fill="none" stroke="#000000" stroke-miterlimit="10" x1="12.86" y1="12.745" x2="9.501" y2="18.009"/>
	<line fill="none" stroke="#000000" stroke-miterlimit="10" x1="12.879" y1="12.734" x2="6.961" y2="10.74"/>
</g>
</svg>
